<svg xmlns="http://www.w3.org/2000/svg" width="480" height="140" viewBox="0 0 480 140"><g><g><path d="M0-.007h448.643L370.294 140H0z"/></g><g><g><g><path fill="#0b72b9" d="M439.47 17.24l-56.126 100.099C370.813 106.597 362.88 90.643 362.9 72.84c.035-32.314 26.259-58.478 58.573-58.442a58.466 58.466 0 0 1 17.997 2.84z"/></g><g><path d="M479.916 72.972c-.036 32.314-26.26 58.479-58.573 58.442-14.51-.016-27.783-5.314-38-14.075l56.128-100.1c23.497 7.619 40.474 29.699 40.445 55.733z"/></g><g><g><g><g/><g/><g><path fill="#fff" d="M437.09 25.812l-.09 80.377-7.67-.008.058-52.247-29.396 52.214-7.938-.009z"/></g></g></g></g></g><g><g><text dominant-baseline="text-before-edge" style="line-height:68px;font-kerning:normal" fill="#fff" font-family="'Raleway Thin','Raleway-Thin'" font-size="57" font-style="none" font-weight="400"><tspan>Arc</tspan></text></g></g><g><g><text dominant-baseline="text-before-edge" style="line-height:65px;font-kerning:normal" fill="#fff" font-family="'Raleway Thin','Raleway-Thin'" font-size="54" font-style="none" font-weight="400"><tspan>Development</tspan></text></g></g></g></g></svg>